<svg xmlns="http://www.w3.org/2000/svg" viewBox="0 0 79 48">
    <defs>
        <linearGradient id="8z9i0qq7ya" x1="14.982%" x2="84.896%" y1="91.402%" y2="24.91%">
            <stop offset="28%" stop-color="#FA1660"/>
            <stop offset="78%" stop-color="#FF6E00"/>
        </linearGradient>
    </defs>
    <g fill="none" fill-rule="evenodd">
        <g fill-rule="nonzero">
            <g>
                <g>
                    <path fill="#FFF" d="M76.987 10.035L71.549 10.035 71.549 4.597 68.662 4.597 68.662 10.035 63.224 10.035 63.224 12.838 68.662 12.838 68.662 18.276 71.549 18.276 71.549 12.838 76.987 12.838z" transform="translate(-164 -472) translate(164 472) translate(0 12)"/>
                    <g>
                        <path fill="url(#8z9i0qq7ya)" d="M46.047 8.297h-8.575c-.112 0-.168-.056-.196-.168L34.585 0l-2.638 8.129c-.028.112-.084.168-.196.168h-8.577l6.924 5.047c.075.055.177.055.252 0 1.906-1.178 3.616-2.019 7.178-2.915-3.252 2.523-6.447 5.382-9.082 8.69-.078.088-.135.194-.168.308l-.757 2.326 6.924-5.017c.112-.084.168-.084.28 0l6.923 5.015-2.634-8.184c-.029-.112 0-.169.084-.224l6.949-5.046z" transform="translate(-164 -472) translate(164 472) translate(0 12)"/>
                        <path fill="#FFF" d="M53.33 6.195c1.4 0 2.297.728 2.297 1.934 0 1.262-.897 2.158-2.298 2.158h-2.24V6.195h2.24zm1.765 6.952c2.41-.309 4.4-2.383 4.4-5.018 0-3.42-2.326-5.298-6.082-5.298h-6.138v17.21h3.813v-6.81l4.568 6.81h4.429l-4.99-6.894zM24.549 2.83H13.197v3.476h3.728v13.735h3.896V6.307h3.729l-.001-3.476zM6.026 9.14C4.933 8.634 4.513 8.102 4.513 7.4c0-.813.7-1.486 1.737-1.458.954.028 1.654.533 2.187 1.74l3.281-1.43C10.821 3.952 9 2.607 6.056 2.607 2.945 2.607.646 4.652.646 7.4c0 1.878.897 3.42 3.196 4.568l2.298 1.15c1.288.643 1.905 1.122 1.905 2.074 0 1.01-.841 1.74-1.906 1.74-1.15 0-2.187-.644-2.663-2.102L0 15.84c.783 2.83 3.111 4.484 6.139 4.484 3.279 0 5.802-2.102 5.802-5.13 0-2.326-1.234-3.895-3.728-5.046L6.026 9.14z" transform="translate(-164 -472) translate(164 472) translate(0 12)"/>
                    </g>
                </g>
            </g>
        </g>
    </g>
</svg>
